<svg width="11" height="11" viewBox="0 0 11 11" fill="none" xmlns="http://www.w3.org/2000/svg">
<path d="M7.66341 6.52738C9.01025 4.66282 8.55981 2.08095 6.65795 0.760842C4.75609 -0.55927 2.12258 -0.117971 0.776061 1.7469C-0.570457 3.61146 -0.120331 6.19302 1.78185 7.51313C3.13931 8.45535 4.93402 8.5279 6.3658 7.69892L9.47679 10.7306C9.8127 11.0773 10.3716 11.0912 10.7252 10.7618C11.0788 10.4328 11.0929 9.88492 10.7574 9.53825C10.7467 9.52721 10.7364 9.51711 10.7252 9.50671L7.66341 6.52738ZM4.21716 6.81002C2.71428 6.81033 1.49581 5.61671 1.49485 4.14329C1.49453 2.66988 2.71202 1.47531 4.21523 1.47468C5.71619 1.47405 6.93401 2.66578 6.93691 4.1373C6.93948 5.61103 5.72263 6.80749 4.21909 6.81002C4.21845 6.81002 4.21813 6.81002 4.21716 6.81002Z" fill="white"/>
</svg>
